<svg width="690" height="726" viewBox="0 0 690 726" fill="none" xmlns="http://www.w3.org/2000/svg">
<path d="M548.185 341.093C549.882 339.505 551.244 337.611 552.189 335.527C554.019 331.7 554.248 327.383 552.826 323.511C552.011 321.651 550.819 319.981 549.319 318.595C547.819 317.209 546.04 316.136 544.085 315.437C542.161 314.632 540.075 314.218 537.952 314.219C535.829 314.221 533.712 314.638 531.728 315.446C529.743 316.254 527.932 317.437 526.402 318.923C524.872 320.409 523.654 322.168 522.821 324.096C521.901 325.995 521.374 328.04 521.271 330.11C521.168 332.18 521.491 334.234 522.222 336.151C523.155 338.502 524.669 340.578 526.634 342.2C528.6 343.822 530.958 344.943 533.508 345.466C536.058 345.989 538.723 345.9 541.276 345.205C543.828 344.509 546.193 343.23 548.166 341.475L548.185 341.093ZM534.576 325.981C535.277 325.36 536.149 324.956 537.074 324.823C538 324.689 538.935 324.834 539.753 325.237C540.917 325.732 541.816 326.661 542.254 327.822C542.65 329.044 542.527 330.387 541.911 331.559C541.695 332.189 541.342 332.772 540.876 333.266C540.41 333.76 539.843 334.154 539.213 334.419C538.584 334.685 537.908 334.816 537.232 334.804C536.556 334.791 535.896 334.636 535.298 334.348C534.728 334.111 534.216 333.764 533.793 333.327C533.37 332.889 533.044 332.371 532.835 331.802C532.625 331.194 532.543 330.547 532.596 329.899C532.648 329.25 532.833 328.614 533.141 328.027C533.486 327.268 533.973 326.574 534.576 325.981Z" fill="#EBEBEB"/>
<path d="M295.081 635.437C294.458 634.164 294.39 632.685 294.892 631.323C295.393 629.962 296.424 628.83 297.757 628.176C350.435 602.419 376.475 575.033 374.752 547.342C371.286 494.745 266.811 446.419 201.838 428.26C168.261 418.933 136.999 400.285 114.475 378.46C92.6579 357.32 79.038 333.199 79.4513 311.681C79.8613 293.174 91.1133 279.137 111.174 271.8L107.921 257.528C107.333 257.375 106.765 257.164 106.226 256.898C101.014 254.398 100.304 245.001 100.349 244.887C99.865 238.049 103.356 234.118 111.608 231.499C300.083 171.74 419.02 222.745 583.512 293.413L588.847 295.8L590.071 293.294C590.383 292.627 590.827 292.023 591.378 291.518C591.929 291.012 592.575 290.616 593.277 290.352C594.669 289.847 596.191 289.891 597.508 290.475C606.413 294.466 655.81 315.774 670.952 322.926C682.108 328.201 680.436 336.58 679.191 342.673C678.191 347.034 676.159 351.143 673.259 354.669C672.049 356.081 670.764 357.43 669.409 358.711C667.116 361.022 664.144 362.579 660.934 363.149C657.724 363.719 654.448 363.272 651.596 361.874C637.356 356.297 588.571 334.5 578.387 330.227C577.052 329.675 576.016 328.623 575.508 327.3C575 325.978 575.061 324.494 575.677 323.175L576.859 320.707L565.98 315.396C566.372 316.202 566.883 316.971 567.196 317.776C568.618 321.615 569.234 325.719 569.008 329.849C568.782 333.98 567.72 338.057 565.881 341.846C563.989 346.035 561.25 349.837 557.832 353.017C553.293 357.137 547.651 359.905 541.615 360.972C535.579 362.04 529.419 361.36 523.909 359.018C523.909 359.018 523.909 359.018 523.685 358.786C522.786 358.828 521.901 358.634 521.124 358.224C503.951 349.294 485.349 333.593 467.225 318.545C456 308.574 444.131 299.304 431.685 290.787C422.425 284.588 411.055 281.916 399.651 283.259C391.16 284.005 382.665 283.08 374.675 280.541C366.119 277.287 358.168 272.772 351.093 267.151C344.056 260.887 335.278 256.73 325.755 255.155C316.683 254.547 307.512 256.07 299.012 259.593C289.087 263.478 278.557 265.5 267.994 265.549C260.416 264.737 253.164 262.354 246.723 258.559C237.648 254.07 229.031 249.815 219.435 252.648C206.201 256.678 193.221 261.533 180.575 267.183L166.032 273.244C155.53 277.133 144.434 279.057 133.341 278.915C128.227 278.813 123.095 279.359 118.077 280.541C100.221 286.146 91.1189 296.389 90.8461 311.349C90.4401 331.127 105.915 356.665 131.466 378.46C151.072 395.184 176.611 409.704 205.461 417.727C265.856 434.843 381.811 483.487 385.83 546.281C387.045 565.264 377.966 583.714 358.727 601.365C341.809 616.023 322.866 628.275 302.5 637.732C301.84 638.063 301.124 638.266 300.393 638.329C299.662 638.393 298.931 638.315 298.242 638.102C297.552 637.889 296.918 637.544 296.376 637.086C295.833 636.629 295.393 636.068 295.081 635.437ZM656.268 351.543C659.77 352.918 660.521 352.812 664.853 347.745C666.481 345.719 667.642 343.386 668.253 340.912C669.715 334.401 669.379 334.054 665.724 332.601C650.735 325.528 604.873 305.709 597.664 302.347C594.473 308.916 591.365 315.408 588.29 322.016C596.97 325.775 642.219 346.083 656.268 351.543ZM568.584 304.852L581.837 310.532L583.899 305.364L578.564 302.977C416.252 233.44 299.118 183.257 114.625 241.838C112.193 242.612 111.383 243.138 111.308 243.061C111.294 243.912 111.383 244.759 111.575 245.583C111.742 246.184 111.949 246.773 112.194 247.345C113.098 247.24 113.991 247.032 114.853 246.726C296.597 188.191 410.617 237.081 568.584 304.852ZM555.715 337.993C556.963 335.554 557.709 332.915 557.91 330.231C558.111 327.547 557.762 324.871 556.884 322.357C555.597 319.46 553.62 316.92 551.111 314.94C548.601 312.96 545.628 311.594 542.429 310.951C539.23 310.308 535.893 310.405 532.684 311.236C529.474 312.066 526.481 313.607 523.942 315.735C521.591 317.943 519.7 320.57 518.379 323.46C517.115 325.883 516.366 328.514 516.179 331.19C515.992 333.867 516.371 336.532 517.292 339.021C518.914 342.586 521.58 345.581 524.97 347.645C528.359 349.709 532.327 350.753 536.396 350.653C540.465 350.552 544.46 349.311 547.901 347.079C551.342 344.846 554.081 341.718 555.789 338.07L555.715 337.993ZM474.693 310.383C484.823 318.93 495.366 327.825 505.168 335.07C504.78 329.628 505.809 324.127 508.161 319.072C510.11 314.546 513.104 310.486 516.904 307.215C520.704 303.943 525.205 301.551 530.049 300.229C499.576 287.336 470.545 275.451 442.012 265.366L435.61 280.487C436.413 280.915 437.178 281.305 437.977 281.81C450.762 290.601 462.97 300.142 474.536 310.381L474.693 310.383ZM357.916 258.562C364.099 263.56 371.071 267.576 378.589 270.469C385.276 272.562 392.386 273.277 399.476 272.57C408.421 271.762 417.371 272.81 425.728 275.645C427.726 270.972 429.646 266.298 431.681 261.664C400.035 250.557 367.336 242.227 333.967 236.771L332.601 245.306C341.972 247.908 350.598 252.426 357.916 258.562ZM251.742 249.149C256.79 252.196 262.454 254.206 268.398 255.058C277.618 254.931 286.793 253.089 295.426 249.63C303.866 246.314 312.795 244.486 321.786 244.233L323.059 235.201C290.536 230.913 257.455 230.459 224.528 233.849L224.56 241.101C234.258 241.491 243.608 244.259 251.742 249.149ZM133.043 268.339C142.8 268.589 152.585 267.025 161.875 263.732L176.336 257.746C188.569 252.369 201.077 247.652 213.802 243.617L213.584 235.37C181.591 239.535 149.969 246.651 119.148 256.621L121.902 269.094C125.211 268.825 129.152 268.487 133.043 268.339Z" fill="#68B092"/>
<g clip-path="url(#clip0)">
<path d="M295.324 635.409C294.7 634.136 294.631 632.657 295.131 631.296C295.632 629.934 296.662 628.803 297.994 628.15C350.651 602.433 376.669 575.066 374.923 547.373C371.414 494.771 266.902 446.363 201.914 428.154C168.33 418.801 137.054 400.128 114.513 378.285C92.6785 357.127 79.0393 332.995 79.4352 311.477C79.8302 292.969 91.0708 278.94 111.125 271.619L107.861 257.343C107.273 257.19 106.705 256.979 106.165 256.712C100.951 254.208 100.234 244.81 100.279 244.696C99.7892 237.858 103.277 233.929 111.527 231.316C299.951 171.7 418.928 222.798 583.476 293.594L588.813 295.985L590.034 293.481C590.345 292.814 590.79 292.21 591.34 291.705C591.891 291.2 592.536 290.804 593.238 290.541C594.63 290.037 596.151 290.082 597.469 290.667C606.377 294.665 655.791 316.012 670.939 323.175C682.098 328.46 680.433 336.837 679.193 342.93C678.196 347.29 676.168 351.397 673.271 354.922C672.062 356.332 670.778 357.681 669.424 358.961C667.134 361.27 664.162 362.825 660.952 363.392C657.743 363.96 654.467 363.51 651.614 362.11C637.37 356.522 588.568 334.687 578.38 330.406C577.044 329.853 576.008 328.8 575.499 327.477C574.99 326.154 575.049 324.67 575.664 323.351L576.844 320.884L565.961 315.565C566.354 316.371 566.865 317.14 567.179 317.946C568.604 321.786 569.223 325.89 569.001 330.021C568.779 334.152 567.72 338.228 565.884 342.015C563.995 346.204 561.259 350.003 557.844 353.181C553.309 357.297 547.669 360.061 541.634 361.124C535.599 362.187 529.438 361.502 523.926 359.156C523.926 359.156 523.926 359.156 523.702 358.924C522.803 358.965 521.918 358.77 521.14 358.36C503.961 349.416 485.346 333.7 467.21 318.639C455.977 308.659 444.101 299.379 431.648 290.852C422.383 284.646 411.011 281.965 399.608 283.299C391.118 284.038 382.622 283.107 374.631 280.562C366.072 277.301 358.118 272.78 351.038 267.154C343.996 260.883 335.214 256.72 325.691 255.137C316.618 254.523 307.448 256.038 298.951 259.555C289.03 263.433 278.502 265.447 267.939 265.488C260.36 264.67 253.106 262.281 246.662 258.481C237.583 253.985 228.963 249.723 219.369 252.549C206.139 256.569 193.163 261.414 180.522 267.054L165.984 273.105C155.485 276.985 144.391 278.902 133.298 278.751C128.183 278.645 123.052 279.187 118.035 280.365C100.184 285.956 91.0903 296.193 90.8296 311.153C90.4396 330.932 105.935 356.482 131.503 378.298C151.123 395.037 176.673 409.577 205.529 417.623C265.938 434.786 381.93 483.521 386 546.32C387.23 565.305 378.167 583.748 358.942 601.386C342.036 616.03 323.103 628.268 302.745 637.71C302.085 638.04 301.369 638.243 300.638 638.306C299.908 638.369 299.177 638.291 298.487 638.077C297.797 637.863 297.163 637.518 296.62 637.06C296.077 636.602 295.637 636.041 295.324 635.409ZM656.278 351.783C659.781 353.16 660.532 353.054 664.86 347.99C666.486 345.966 667.645 343.634 668.254 341.16C669.71 334.65 669.374 334.302 665.718 332.847C650.723 325.762 604.846 305.908 597.634 302.54C594.449 309.106 591.346 315.596 588.276 322.202C596.959 325.968 642.224 346.312 656.278 351.783ZM568.556 305.022L581.815 310.713L583.872 305.546L578.535 303.155C416.169 233.491 298.996 183.216 114.552 241.658C112.121 242.431 111.311 242.956 111.236 242.878C111.222 243.73 111.313 244.577 111.505 245.401C111.673 246.002 111.88 246.591 112.125 247.164C113.03 247.059 113.922 246.852 114.784 246.546C296.479 188.149 410.537 237.128 568.556 305.022ZM555.715 338.155C556.961 335.716 557.705 333.078 557.904 330.394C558.102 327.71 557.751 325.033 556.872 322.519C555.582 319.621 553.603 317.08 551.092 315.098C548.581 313.116 545.607 311.747 542.407 311.102C539.208 310.456 535.871 310.551 532.662 311.379C529.453 312.207 526.461 313.745 523.924 315.871C521.575 318.078 519.686 320.703 518.368 323.592C517.105 326.015 516.358 328.645 516.174 331.322C515.989 333.998 516.37 336.663 517.293 339.153C518.918 342.72 521.587 345.717 524.978 347.783C528.369 349.85 532.338 350.897 536.406 350.8C540.475 350.703 544.469 349.465 547.908 347.235C551.347 345.005 554.084 341.879 555.789 338.232L555.715 338.155ZM474.672 310.482C484.808 319.037 495.359 327.94 505.166 335.193C504.774 329.75 505.798 324.25 508.146 319.197C510.092 314.672 513.082 310.614 516.88 307.345C520.677 304.077 525.176 301.688 530.018 300.37C499.536 287.453 470.495 275.545 441.954 265.438L435.565 280.554C436.368 280.984 437.133 281.374 437.933 281.88C450.724 290.681 462.94 300.231 474.515 310.48L474.672 310.482ZM357.853 258.569C364.04 263.573 371.016 267.594 378.536 270.493C385.225 272.59 392.335 273.311 399.424 272.609C408.369 271.808 417.319 272.864 425.679 275.705C427.673 271.033 429.589 266.361 431.62 261.728C399.965 250.596 367.261 242.241 333.887 236.759L332.528 245.293C341.901 247.903 350.531 252.427 357.853 258.569ZM251.674 249.074C256.724 252.126 262.389 254.139 268.334 254.996C277.554 254.877 286.727 253.041 295.358 249.589C303.794 246.28 312.722 244.458 321.713 244.212L322.978 235.18C290.452 230.868 257.371 230.389 224.447 233.753L224.485 241.006C234.184 241.403 243.535 244.179 251.674 249.074ZM132.992 268.174C142.748 268.431 152.532 266.875 161.819 263.59L176.275 257.614C188.504 252.247 201.008 247.539 213.729 243.513L213.505 235.265C181.516 239.406 149.899 246.498 119.087 256.445L121.851 268.921C125.16 268.654 129.1 268.319 132.992 268.174Z" fill="#212121"/>
</g>
<defs>
<clipPath id="clip0">
<rect width="689.581" height="347.54" fill="white" transform="translate(0.00012207 378.46)"/>
</clipPath>
</defs>
</svg>
