<svg width="170" height="212" viewBox="0 0 170 212" fill="none" xmlns="http://www.w3.org/2000/svg">
<path d="M169.954 102.821C169.95 102.788 169.943 102.751 169.939 102.723C169.826 101.409 169.257 100.136 168.208 99.1793L88.7161 26.5454C86.584 24.5985 83.302 24.6529 81.2374 26.6716C81.2374 26.6716 64.1609 43.3737 46.2045 60.9394C43.7958 59.7299 41.8815 58.0658 40.2263 55.7099C37.1599 51.3506 37.1403 47.5699 39.12 42.2512C41.3392 36.2995 51.941 27.2807 51.941 18.7839C51.941 8.40761 43.5214 0 33.1352 0C28.0456 0 23.4264 2.02087 20.0398 5.3056C18.1647 7.06543 10.662 14.505 5.46131 25.4229C-3.00399 43.1931 -1.59056 61.6202 9.44024 77.3086C12.1974 81.2286 15.364 84.6938 18.879 87.674C10.8471 95.5313 5.33282 100.935 5.27402 100.998C4.08056 102.016 3.35533 103.513 3.35533 105.124V206.577C3.35533 209.575 5.78581 212 8.78689 212C8.93716 212 164.538 211.956 164.538 211.956V211.952C164.547 211.952 164.562 211.956 164.571 211.956C167.574 211.956 170 209.527 170 206.533C170 206.533 169.959 102.884 169.954 102.821ZM31.7741 13.6523C34.6815 13.6523 37.038 16.0038 37.038 18.91C37.038 21.8119 34.6815 24.1656 31.7741 24.1656C28.8667 24.1656 26.5124 21.8119 26.5124 18.91C26.5124 16.0038 28.8667 13.6523 31.7741 13.6523ZM85.1728 38.0354L157.268 103.917L132.476 123.11C133.756 114.422 132.737 105.962 129.403 98.2417C123.281 84.0413 113.337 74.2762 99.8558 69.2056C89.2998 65.2356 78.2842 64.781 68.5645 64.3807C64.8665 64.2284 61.6607 64.0566 58.8252 63.8021L85.1728 38.0354ZM28.0565 93.8998C31.4779 95.7205 35.165 97.2237 39.0808 98.3701C48.6894 101.183 58.4223 101.583 67.0117 101.938C74.5688 102.251 81.7078 102.545 86.5993 104.387C89.1909 105.357 92.1789 106.921 94.8555 113.117C96.5651 117.076 93.4225 123.319 92.0831 125.527L88.5572 121.927C87.514 120.867 86.1136 120.254 84.5935 120.304C83.106 120.323 81.6947 120.952 80.6842 122.046L63.5119 140.643L17.0518 104.663L28.0565 93.8998ZM14.2184 116.192L56.1181 148.646L14.2184 194.021V116.192ZM22.4464 201.104L84.7916 133.597L151.003 201.104H22.4464ZM159.141 193.901L115.817 149.729L159.141 116.192V193.901Z" fill="#444444"/>
</svg>
